<svg id="Capa_1" data-name="Capa 1" xmlns="http://www.w3.org/2000/svg" viewBox="0 0 1291 868.56"><defs><style>.cls-1{fill:#fff;}</style></defs><path class="cls-1" d="M511.5,107c-1.64-3.88-6.39-13.57-17-19-1.57-.8-8-4-20.5-3.5-6.2.22-27.37,1-45.5,17.5-3.18,2.9-26.95,24.56-20.5,46.5a30.67,30.67,0,0,0,8,13,131.42,131.42,0,0,0-1,30c.72,8.66,2,13.06,5,17,1,1.33,5.06,6.62,12,8s12.89-2,18-5a42.81,42.81,0,0,0,9-7c-1.77.19-5,.53-9,1-9.45,1.11-12.06,1.6-16,1-3.66-.56-6.53-.89-9-3-2-1.72-3.7-4.52-4.5-13.5a103.22,103.22,0,0,1,1.5-26.5c1.19-6.8,2.91-13.3,3.5-15.5.76-2.87,1.47-5.26,2-7a32.72,32.72,0,0,1-3,4,31.37,31.37,0,0,1-3,3c-.65-3.73-3.17-20.52,7.5-35.5,13.84-19.43,37.93-19.06,42-19,21.72.33,35.81,13.79,39,17,0,.86-.07,2.27,0,4a47.35,47.35,0,0,0,1,8c1.13,5.55,1,16.85,0,26-1.17,10.52-1.86,16.79-6,24-2.59,4.52-5.31,7.27-9,11a91.18,91.18,0,0,1-22,16c-3.24,1.78-6,3.11-8,4a28.59,28.59,0,0,0,6,3,30.94,30.94,0,0,0,20,0c8.72-3,13.55-9.33,17-14,8.82-11.94,10.21-26.29,13-55,.72-7.45,1.32-16.25-4-24A25.78,25.78,0,0,0,511.5,107Z" transform="translate(-239.95 -84.46)"/><path class="cls-1" d="M474.5,204a84.23,84.23,0,0,1-2.5,8.5,62.36,62.36,0,0,1-6,13c-.79,1.27-1.49,2.29-2,3,.95-.27,2-.6,3-1a34.88,34.88,0,0,0,6-3c4.23,5.17,10.2,12.69,17,22,17.09,23.41,27.41,37.27,36,57,7.23,16.61,10.14,30.08,14,48,4,18.61,5.5,32.56,7,47,3.62,34.87,3.83,65.57,4,90,0,2.79,0,6,.18,10.58.25,7.87.68,13.36,2.82,37.42.84,9.5,1.27,14.29,1.47,15.93,1.65,13.76,2.92,16,2.53,21.07-.71,9.29-6,15.89-11,22-7.2,8.77-17,17-37,27a252.25,252.25,0,0,1-52,19,211.51,211.51,0,0,0-1-39c-1.11-9.35-3.64-29.53-13-52-17.38-41.71-50-71.44-52-70-.24.17-.06.81,0,1,3.27,3.89,7.92,9.66,13,17,7.93,11.46,35.79,54,41,112,2.62,29.22,1,49.9,1,50h0c0,28.34-1.83,34.49,0,46,1.4,8.86,2.69,6.5,4,15a75.34,75.34,0,0,1-4,37c-3,8.34-10,17.23-24,35-4.88,6.19-7.85,9.54-11,9-.17,0-.31-.07-.42-.1-3.71-1.06-5.59-5.27-6.58-7.9-3.76-10-6.72-29.59-9-41-.82-4.12-1.55-7.15-2-9a206.34,206.34,0,0,0-14-41c-4.18-8.79-4.66-7.81-14-26-3-5.84-5.4-10.7-7-14-7.38-15-15.26-32.41-23-52-6.23-15.77-14.4-36.63-22-65-6.22-23.23-9.55-41.94-12-56-2.31-13.23-3.91-24.51-5-33a11.68,11.68,0,0,1,0-4,13.35,13.35,0,0,1,4-8c3.21-2.84,7.42-3,9-3,15-2,31-2,45-2s50.38,1.16,73,8a180.66,180.66,0,0,1,61,32,172.08,172.08,0,0,1,37,42c.57,1,1.58,1.29,2,1s.5-1.15,0-2a159.24,159.24,0,0,0-18-29c-5.57-7.13-30.54-37.84-76-54a172.13,172.13,0,0,0-40-9,228.64,228.64,0,0,0-1-23,237,237,0,0,0-6-35c-6.59-26.52-13.61-35.89-14-59,0-1.72,0-3.12,0-4,.42-.63,1.14-1.68,2-3,7.16-10.91,11.21-18.89,14-24,5.09-9.34,9.05-16.62,16-25,4.94-6,13.4-14.91,18-23a88,88,0,0,0,4-8c2.19-5.13,1.94-6.2,3-8a6.93,6.93,0,0,0,1-3,7.31,7.31,0,0,0,0-1c-.23-2.48-4.25-5.83-6-5-1.22.58-.54,2.83-1,6-.71,4.83-3.48,7.95-6,11-8.92,10.77-19.43,26.17-20,27a211,211,0,0,0-13,22c-3.6,6.94-4.55,9.64-8,16a169.65,169.65,0,0,1-12,19c.33,3,.93,7.55,2,13a162.32,162.32,0,0,0,6,22c4.82,14.33,7.1,27.24,9,38a215.24,215.24,0,0,1,3,46,206.49,206.49,0,0,0-30-1,179.18,179.18,0,0,0-21,2,112.12,112.12,0,0,0-21,5c-10.19,3.6-15.74,5.56-19,11-1.15,1.92-2.31,4.77-2,16,.27,9.65,1.3,14,3,27,1.36,10.35,2.35,17.95,3,28,.22,3.43.41,7.21,1,13,0,0,.76,7.36,2,15,8.17,50.17,25,82,25,82,21.66,37.56,31.85,54.67,37,63,4.48,7.25,8.38,14.84,13,22A65.42,65.42,0,0,1,382,722.31,60.32,60.32,0,0,1,386,736.5c3.14,19,3.3,34.49,8,53,4.57,18,9.39,23,14,24a9.8,9.8,0,0,0,4,0c8.2-1.51,21.39-11.12,33-32,13-23.33,16.65-47.63,14-58-.25-1-1.81-6.71-3.38-14.78,0,0-1.18-5.12-1.62-9.22a121.68,121.68,0,0,1,3-42,166,166,0,0,0,35-11c14.3-6.31,57.38-25.34,70-64,1.39-4.26,2-7.54,2-43,0-38.86,0-58.29-1-77-2.43-46.37-3.82-72.83-12-108-7.67-33-15.63-65.66-41-99a199.37,199.37,0,0,0-33-34,37.17,37.17,0,0,1,2-16Z" transform="translate(-239.95 -84.46)"/><path class="cls-1" d="M301,528.5a279.57,279.57,0,0,0-23,24c-2.19,2.58-5.42,6.31-9.18,11.64-1.75,2.47-1.85,2.79-3.32,4.86-3.63,5.11-6.25,7.75-10.5,12.5-7,7.82-10.51,11.72-12,15a28.8,28.8,0,0,0-3,14c.25,4.12,1.47,6.8,6,16,4.68,9.5,7,14.25,8,16,8,14.34,12.89,23.16,19,32a204.08,204.08,0,0,0,38,41c36.78,29.85,82.32,42.7,83,43,.33-1.33.67-2.67,1-4a10.52,10.52,0,0,1-3.5-12.5,154.39,154.39,0,0,1-16-5c-4-1.5-16.33-6.29-36.5-19.5,0,0-33.89-22.18-55-47a159.53,159.53,0,0,1-12-16c-4.36-6.53-3.79-6.59-8-13-8.43-12.82-11.33-13.49-14-21a31.43,31.43,0,0,1-2-15c.95-7.36,4.61-12.27,9-18,5.05-6.6,27.45-28,32.5-32.5a78.5,78.5,0,0,1,18-12,40,40,0,0,0-2.5-7.5A41,41,0,0,0,301,528.5Z" transform="translate(-239.95 -84.46)"/><path class="cls-1" d="M307.5,728a239.3,239.3,0,0,0,60,35,190.63,190.63,0,0,0-6.5,22.5c-6.71,30.09-14.13,90.36,10,103,5.12,2.68,10,2.37,15,2,27.1-2,49.05-25.41,82-74,20.26-29.88,30.83-45.46,48-78a989.07,989.07,0,0,0,76-189c9.1-31.79,15.12-58.76,19-78l19,6c-16.68,95-42.28,169.25-63,220-25.09,61.44-46.69,97.44-60,118-31.84,49.18-94.15,145.43-163,137-5.23-.64-11.18-1.42-18-5C263.84,914.92,304,742.35,307.5,728Z" transform="translate(-239.95 -84.46)"/><path class="cls-1" d="M557,462q13,1.62,27,4,10.61,1.81,20.55,3.91-2,10.05-4,20.11c-6.53-1.84-13.74-3.58-21.58-5s-15.23-2.4-22-3Z" transform="translate(-239.95 -84.46)"/><path class="cls-1" d="M559.5,489c4.71.43,9.73,1.07,15,2a183.6,183.6,0,0,1,24.83,6.19q-1.58,7.74-3.16,15.47A139.41,139.41,0,0,0,557.5,506Q558.5,497.5,559.5,489Z" transform="translate(-239.95 -84.46)"/><path class="cls-1" d="M635.5,479A252.24,252.24,0,0,1,707,512.5c16.38,11.1,35,23.74,51,47,7.69,11.19,29.93,44.55,26.5,89.5-3.58,46.92-32.9,77.35-47.5,92.5-21.28,22.08-43.82,34.07-70,48a411.12,411.12,0,0,1-57,25v47L462,893v-2c3.4-4.42,8.68-11.38,15-20,16.17-22.06,34.41-47.08,53-80,4.79-8.49,11.55-20.93,19-36.5,6.81-.75,137.53-16.72,168-102,2.58-7.22,9.89-28.49,5-55-11.93-64.69-83.91-92.39-91-95Z" transform="translate(-239.95 -84.46)"/><path class="cls-1" d="M573,700l-18,41a254.24,254.24,0,0,0,80-24.5c19.94-10,39-19.83,56-41,8.34-10.42,24.22-30.24,25-59,.62-22.9-8.62-40.09-13-48-9.58-17.31-21.6-27.24-31-35a160.63,160.63,0,0,0-42-25q-2,10-4,20a134.75,134.75,0,0,1,31,23c7.93,7.89,15.19,15.11,20,26,12.07,27.34-1,55.83-3,60-10.25,21.5-27.52,31.68-45,42A165.77,165.77,0,0,1,573,700Z" transform="translate(-239.95 -84.46)"/><path class="cls-1" d="M856.55,376.11V304.53H871v71.58Z" transform="translate(-239.95 -84.46)"/><path class="cls-1" d="M884.67,376.11V362.39h13.72v13.72Z" transform="translate(-239.95 -84.46)"/><path class="cls-1" d="M912.55,376.11V304.53h53.08v12.11H927v15.87h35.93v12.06H927v19.48h40v12.06Z" transform="translate(-239.95 -84.46)"/><path class="cls-1" d="M979.15,376.11V362.39h13.73v13.72Z" transform="translate(-239.95 -84.46)"/><path class="cls-1" d="M1003.37,352.82l14.07-1.37q1.26,7.08,5.15,10.4c2.58,2.22,6.08,3.32,10.47,3.32q7,0,10.52-2.95a8.79,8.79,0,0,0,3.54-6.91,6.48,6.48,0,0,0-1.49-4.32,11.84,11.84,0,0,0-5.2-3.1q-2.54-.88-11.57-3.13-11.62-2.88-16.31-7.08a18.64,18.64,0,0,1-6.59-14.4,18.36,18.36,0,0,1,3.1-10.23,19.4,19.4,0,0,1,8.94-7.25,35.78,35.78,0,0,1,14.08-2.49q13.49,0,20.29,5.9t7.16,15.78l-14.46.63c-.62-3.68-1.94-6.32-4-7.93s-5.08-2.42-9.15-2.42-7.49.86-9.87,2.59a5.2,5.2,0,0,0-2.29,4.44,5.53,5.53,0,0,0,2.15,4.35q2.73,2.3,13.28,4.78t15.6,5.15a20.1,20.1,0,0,1,7.91,7.28,21.31,21.31,0,0,1,2.86,11.4,21.06,21.06,0,0,1-3.42,11.52,20.49,20.49,0,0,1-9.67,8q-6.26,2.61-15.58,2.61-13.58,0-20.85-6.28T1003.37,352.82Z" transform="translate(-239.95 -84.46)"/><path class="cls-1" d="M1073.64,376.11V362.39h13.72v13.72Z" transform="translate(-239.95 -84.46)"/><path class="cls-1" d="M906,434.42h24.49v77q0,15.1-2.66,23.24a32.86,32.86,0,0,1-13,17.06q-9.37,6.43-24.73,6.43-18,0-27.73-10.08t-9.79-29.59l23.16-2.66q.4,10.46,3.07,14.78,4,6.55,12.12,6.55t11.62-4.69Q906,527.81,906,513Z" transform="translate(-239.95 -84.46)"/><path class="cls-1" d="M951.64,496q0-18.58,5.57-31.21a57,57,0,0,1,11.33-16.68,47.25,47.25,0,0,1,15.73-11q11.37-4.82,26.23-4.82,26.89,0,43,16.69t16.14,46.4q0,29.48-16,46.11t-42.83,16.64q-27.15,0-43.16-16.55T951.64,496Zm25.32-.83q0,20.67,9.55,31.34t24.24,10.66q14.68,0,24.11-10.58t9.42-31.75q0-20.93-9.17-31.21t-24.36-10.29q-15.19,0-24.49,10.41T977,495.18Z" transform="translate(-239.95 -84.46)"/><path class="cls-1" d="M1082.63,516.51l23.91-2.32q2.16,12,8.75,17.68t17.81,5.65q11.87,0,17.89-5t6-11.74a11.08,11.08,0,0,0-2.54-7.35q-2.52-3-8.84-5.27-4.31-1.5-19.67-5.31-19.76-4.9-27.72-12-11.21-10-11.21-24.49a31.34,31.34,0,0,1,5.27-17.39,33,33,0,0,1,15.19-12.32q9.91-4.23,24-4.24,22.9,0,34.49,10.05t12.16,26.81l-24.57,1.08q-1.57-9.37-6.77-13.49t-15.56-4.11q-10.71,0-16.77,4.4a8.86,8.86,0,0,0-3.9,7.55,9.35,9.35,0,0,0,3.65,7.39q4.65,3.9,22.58,8.14t26.52,8.75a34.22,34.22,0,0,1,13.45,12.37q4.86,7.85,4.86,19.39a35.82,35.82,0,0,1-5.81,19.58,34.88,34.88,0,0,1-16.44,13.58q-10.62,4.44-26.48,4.44-23.07,0-35.44-10.67T1082.63,516.51Z" transform="translate(-239.95 -84.46)"/><path class="cls-1" d="M1202.25,556.11V434.42h90.22V455h-65.65v27h61.09v20.51h-61.09v33.12h68v20.5Zm31.21-128.66,11.45-24.82h26.15l-22.83,24.82Z" transform="translate(-239.95 -84.46)"/><path class="cls-1" d="M862.08,736.11V614.42h39.43q22.41,0,29.22,1.83a31.83,31.83,0,0,1,17.51,11.91q7.05,9.17,7.06,23.7,0,11.21-4.07,18.84a33.29,33.29,0,0,1-10.34,12,35.42,35.42,0,0,1-12.74,5.77q-8.79,1.75-25.48,1.75h-16v45.9ZM886.65,635v34.53H900.1q14.52,0,19.42-1.91a16.14,16.14,0,0,0,7.68-6,16.37,16.37,0,0,0,2.78-9.46,15.73,15.73,0,0,0-3.9-11,17,17,0,0,0-9.88-5.39q-4.4-.84-17.68-.83Z" transform="translate(-239.95 -84.46)"/><path class="cls-1" d="M976.13,736.11V615.42h24.57V715.61h61.1v20.5Z" transform="translate(-239.95 -84.46)"/><path class="cls-1" d="M1189.05,736.11h-26.73l-10.63-27.64h-48.64l-10,27.64h-26.07l47.4-121.69h26ZM1143.81,688,1127,642.81,1110.6,688Z" transform="translate(-239.95 -84.46)"/><path class="cls-1" d="M1202.33,736.11V614.42h23.9L1276,695.68V614.42h22.83V736.11h-24.66l-49-79.36v79.36Z" transform="translate(-239.95 -84.46)"/><path class="cls-1" d="M1324.85,736.11V614.42h90.23V635h-65.66v27h61.09v20.51h-61.09v33.12h68v20.5Z" transform="translate(-239.95 -84.46)"/><path class="cls-1" d="M1432,696.51l23.91-2.32q2.16,12,8.75,17.68t17.81,5.65q11.87,0,17.89-5t6-11.74a11.08,11.08,0,0,0-2.54-7.35q-2.52-3-8.84-5.27-4.3-1.5-19.67-5.31-19.75-4.91-27.72-12-11.2-10-11.21-24.49a31.34,31.34,0,0,1,5.27-17.39,33,33,0,0,1,15.19-12.32q9.92-4.23,24-4.24,22.9,0,34.49,10t12.16,26.81l-24.57,1.08q-1.58-9.37-6.77-13.49t-15.56-4.11q-10.71,0-16.77,4.4a8.86,8.86,0,0,0-3.9,7.55,9.35,9.35,0,0,0,3.65,7.39q4.65,3.9,22.58,8.14t26.52,8.75a34.22,34.22,0,0,1,13.45,12.37q4.86,7.85,4.86,19.39a35.82,35.82,0,0,1-5.81,19.58,34.88,34.88,0,0,1-16.44,13.58q-10.62,4.44-26.48,4.44-23.07,0-35.44-10.67T1432,696.51Z" transform="translate(-239.95 -84.46)"/></svg>